<mxfile host="app.diagrams.net" agent="Mozilla/5.0 (Windows NT 10.0; Win64; x64) AppleWebKit/537.36 (KHTML, like Gecko) Chrome/131.0.0.0 Safari/537.36" version="24.8.6">
  <diagram id="C5RBs43oDa-KdzZeNtuy" name="Page-1">
    <mxGraphModel dx="231" dy="126" grid="1" gridSize="10" guides="1" tooltips="1" connect="1" arrows="1" fold="1" page="1" pageScale="1" pageWidth="827" pageHeight="1169" math="0" shadow="0">
      <root>
        <mxCell id="WIyWlLk6GJQsqaUBKTNV-0" />
        <mxCell id="WIyWlLk6GJQsqaUBKTNV-1" parent="WIyWlLk6GJQsqaUBKTNV-0" />
        <mxCell id="O6HcxZKuUeJCaRx5vApD-0" value="FSM&lt;div&gt;(Finite State Machine)&lt;/div&gt;" style="rounded=1;whiteSpace=wrap;html=1;" vertex="1" parent="WIyWlLk6GJQsqaUBKTNV-1">
          <mxGeometry x="10" y="10" width="130" height="50" as="geometry" />
        </mxCell>
        <mxCell id="O6HcxZKuUeJCaRx5vApD-2" value="기계 : 정해진 동작을 반복적으로 수행하는 것&lt;div&gt;유한상태기계 : 특정 상태들이 있고, 그 상태들마다 정해진 동작을 반복수행하는 것&lt;/div&gt;" style="text;html=1;align=left;verticalAlign=middle;whiteSpace=wrap;rounded=0;" vertex="1" parent="WIyWlLk6GJQsqaUBKTNV-1">
          <mxGeometry x="150" y="10" width="310" height="50" as="geometry" />
        </mxCell>
        <mxCell id="O6HcxZKuUeJCaRx5vApD-15" style="edgeStyle=orthogonalEdgeStyle;rounded=0;orthogonalLoop=1;jettySize=auto;html=1;entryX=0;entryY=0.75;entryDx=0;entryDy=0;exitX=1;exitY=0.75;exitDx=0;exitDy=0;" edge="1" parent="WIyWlLk6GJQsqaUBKTNV-1" source="O6HcxZKuUeJCaRx5vApD-3" target="O6HcxZKuUeJCaRx5vApD-4">
          <mxGeometry relative="1" as="geometry" />
        </mxCell>
        <mxCell id="O6HcxZKuUeJCaRx5vApD-3" value="Move" style="rounded=1;whiteSpace=wrap;html=1;" vertex="1" parent="WIyWlLk6GJQsqaUBKTNV-1">
          <mxGeometry x="90" y="230" width="60" height="30" as="geometry" />
        </mxCell>
        <mxCell id="O6HcxZKuUeJCaRx5vApD-4" value="InAir" style="rounded=1;whiteSpace=wrap;html=1;" vertex="1" parent="WIyWlLk6GJQsqaUBKTNV-1">
          <mxGeometry x="170" y="230" width="60" height="30" as="geometry" />
        </mxCell>
        <mxCell id="O6HcxZKuUeJCaRx5vApD-5" value="Attack" style="rounded=1;whiteSpace=wrap;html=1;" vertex="1" parent="WIyWlLk6GJQsqaUBKTNV-1">
          <mxGeometry x="250" y="230" width="60" height="30" as="geometry" />
        </mxCell>
        <mxCell id="O6HcxZKuUeJCaRx5vApD-6" value="state" style="rounded=0;whiteSpace=wrap;html=1;" vertex="1" parent="WIyWlLk6GJQsqaUBKTNV-1">
          <mxGeometry x="90" y="220" width="30" height="10" as="geometry" />
        </mxCell>
        <mxCell id="O6HcxZKuUeJCaRx5vApD-7" value="state" style="rounded=0;whiteSpace=wrap;html=1;" vertex="1" parent="WIyWlLk6GJQsqaUBKTNV-1">
          <mxGeometry x="170" y="220" width="30" height="10" as="geometry" />
        </mxCell>
        <mxCell id="O6HcxZKuUeJCaRx5vApD-8" value="state" style="rounded=0;whiteSpace=wrap;html=1;" vertex="1" parent="WIyWlLk6GJQsqaUBKTNV-1">
          <mxGeometry x="250" y="220" width="30" height="10" as="geometry" />
        </mxCell>
        <mxCell id="O6HcxZKuUeJCaRx5vApD-10" value="Base Layer" style="shape=umlFrame;whiteSpace=wrap;html=1;pointerEvents=0;" vertex="1" parent="WIyWlLk6GJQsqaUBKTNV-1">
          <mxGeometry x="70" y="170" width="270" height="130" as="geometry" />
        </mxCell>
        <mxCell id="O6HcxZKuUeJCaRx5vApD-13" value="Animator&lt;div&gt;Controller&lt;/div&gt;" style="html=1;whiteSpace=wrap;" vertex="1" parent="WIyWlLk6GJQsqaUBKTNV-1">
          <mxGeometry x="230" y="80" width="110" height="50" as="geometry" />
        </mxCell>
        <mxCell id="O6HcxZKuUeJCaRx5vApD-14" value="1" style="endArrow=open;html=1;endSize=12;startArrow=diamondThin;startSize=14;startFill=1;edgeStyle=orthogonalEdgeStyle;align=left;verticalAlign=bottom;rounded=0;" edge="1" parent="WIyWlLk6GJQsqaUBKTNV-1" source="O6HcxZKuUeJCaRx5vApD-13" target="O6HcxZKuUeJCaRx5vApD-10">
          <mxGeometry x="-0.6667" y="-15" relative="1" as="geometry">
            <mxPoint x="190" y="170" as="sourcePoint" />
            <mxPoint x="350" y="170" as="targetPoint" />
            <mxPoint x="15" y="15" as="offset" />
          </mxGeometry>
        </mxCell>
        <mxCell id="O6HcxZKuUeJCaRx5vApD-16" value="isGround == false" style="text;html=1;align=center;verticalAlign=middle;whiteSpace=wrap;rounded=0;" vertex="1" parent="WIyWlLk6GJQsqaUBKTNV-1">
          <mxGeometry x="110" y="260" width="110" height="30" as="geometry" />
        </mxCell>
        <mxCell id="O6HcxZKuUeJCaRx5vApD-19" style="edgeStyle=orthogonalEdgeStyle;rounded=0;orthogonalLoop=1;jettySize=auto;html=1;entryX=1;entryY=0.25;entryDx=0;entryDy=0;exitX=0;exitY=0.25;exitDx=0;exitDy=0;" edge="1" parent="WIyWlLk6GJQsqaUBKTNV-1" source="O6HcxZKuUeJCaRx5vApD-4" target="O6HcxZKuUeJCaRx5vApD-3">
          <mxGeometry relative="1" as="geometry">
            <mxPoint x="160" y="263" as="sourcePoint" />
            <mxPoint x="180" y="263" as="targetPoint" />
          </mxGeometry>
        </mxCell>
        <mxCell id="O6HcxZKuUeJCaRx5vApD-20" value="isGround == true" style="text;html=1;align=center;verticalAlign=middle;whiteSpace=wrap;rounded=0;" vertex="1" parent="WIyWlLk6GJQsqaUBKTNV-1">
          <mxGeometry x="115" y="200" width="100" height="20" as="geometry" />
        </mxCell>
      </root>
    </mxGraphModel>
  </diagram>
</mxfile>
